HIERARCHY
ROOT Hips
{
	OFFSET 0.000000 0.000000 0.000000
	CHANNELS 6 Xposition Yposition Zposition Zrotation Yrotation Xrotation 
	JOINT LowerBack
	{
		OFFSET 0.000000 0.000000 0.000000
		CHANNELS 3 Zrotation Yrotation Xrotation
		JOINT Spine
		{
			OFFSET 0.028270 2.035590 -0.193380
			CHANNELS 3 Zrotation Yrotation Xrotation
			JOINT Spine1
			{
				OFFSET 0.056720 2.048850 -0.042750
				CHANNELS 3 Zrotation Yrotation Xrotation
				JOINT Neck
				{
					OFFSET 0.000000 0.000000 0.000000
					CHANNELS 3 Zrotation Yrotation Xrotation
					JOINT Neck1
					{
						OFFSET -0.054170 1.746240 0.172020
						CHANNELS 3 Zrotation Yrotation Xrotation
						JOINT Head
						{
							OFFSET 0.104070 1.761360 -0.123970
							CHANNELS 3 Zrotation Yrotation Xrotation
							End Site
							{
								OFFSET 0.000000 0.000000 0.000000
							}
						}
					}
				}
				JOINT LeftShoulder
				{
					OFFSET 0.000000 0.000000 0.000000
					CHANNELS 3 Zrotation Yrotation Xrotation
					JOINT LeftArm
					{
						OFFSET 3.362410 1.200890 -0.311210
						CHANNELS 3 Zrotation Yrotation Xrotation
						JOINT LeftForeArm
						{
							OFFSET 4.983000 -0.000000 -0.000000
							CHANNELS 3 Zrotation Yrotation Xrotation
							JOINT LeftHand
							{
								OFFSET 3.483560 -0.000000 -0.000000
								CHANNELS 3 Zrotation Yrotation Xrotation
								JOINT LeftFingerBase
								{
									OFFSET 0.000000 0.000000 0.000000
									CHANNELS 3 Zrotation Yrotation Xrotation
									JOINT LeftHandIndex1
									{
										OFFSET 0.715260 -0.000000 -0.000000
										CHANNELS 3 Zrotation Yrotation Xrotation
										End Site
										{
											OFFSET 0.000000 0.000000 0.000000
										}
									}
								}
								JOINT LThumb
								{
									OFFSET 0.000000 0.000000 0.000000
									CHANNELS 3 Zrotation Yrotation Xrotation
									End Site
									{
										OFFSET 0.000000 0.000000 0.000000
									}
								}
							}
						}
					}
				}
				JOINT RightShoulder
				{
					OFFSET 0.000000 0.000000 0.000000
					CHANNELS 3 Zrotation Yrotation Xrotation
					JOINT RightArm
					{
						OFFSET -3.136600 1.374050 -0.404650
						CHANNELS 3 Zrotation Yrotation Xrotation
						JOINT RightForeArm
						{
							OFFSET -5.241900 -0.000000 -0.000000
							CHANNELS 3 Zrotation Yrotation Xrotation
							JOINT RightHand
							{
								OFFSET -3.444170 -0.000000 -0.000000
								CHANNELS 3 Zrotation Yrotation Xrotation
								JOINT RightFingerBase
								{
									OFFSET 0.000000 0.000000 0.000000
									CHANNELS 3 Zrotation Yrotation Xrotation
									JOINT RightHandIndex1
									{
										OFFSET -0.622530 -0.000000 -0.000000
										CHANNELS 3 Zrotation Yrotation Xrotation
										End Site
										{
											OFFSET 0.000000 0.000000 0.000000
										}
									}
								}
								JOINT RThumb
								{
									OFFSET 0.000000 0.000000 0.000000
									CHANNELS 3 Zrotation Yrotation Xrotation
									End Site
									{
										OFFSET 0.000000 0.000000 0.000000
									}
								}
							}
						}
					}
				}
			}
		}
	}
}
}
MOTION
Frames: 17
Frame Time: 0.008333
-1.770518 17.540801 0.173778 17.175427 83.915314 35.725479 1.401825 -1.289066 2.296055 -0.549268 -1.360982 -2.475705 -6.391782 -1.435026 0.664894 8.941939 -2.537188 -3.644918 -3.849095 -0.319630 0.931509 0.000000 0.000000 0.000000 -2.013691 3.000772 2.614053 -55.093036 4.716574 17.952704 -3.540635 -38.935154 -0.010077 -6.866977 3.705887 -0.220349 -0.109301 -0.034390 0.000000 0.000000 0.000000 0.000000 0.000000 0.000000 0.000000 16.150848 -0.732617 1.129309 59.445628 16.177360 18.887743 2.664049 42.253470 0.015648 5.264487 6.413026 0.300163 0.026003 -0.127541 0.000000 0.000000 0.000000 0.000000 0.000000 0.000000 0.000000 
-1.561337 17.551250 0.211682 19.618239 83.861684 38.171928 0.803798 -1.252854 2.127133 -0.652591 -1.295105 -2.508082 -6.329106 -1.369549 0.667082 8.803877 -2.670090 -3.698012 -3.801394 -0.316743 0.920625 0.000000 0.000000 0.000000 -2.179547 3.164902 2.606893 -55.312550 5.529839 18.505672 -3.573963 -38.486287 -0.011482 -7.164692 3.893734 -0.242299 -0.107782 -0.041408 0.000000 0.000000 0.000000 0.000000 0.000000 0.000000 0.000000 15.844103 -0.727521 1.105066 59.159392 16.820218 19.945451 2.549883 44.099632 0.015984 5.301226 6.392762 0.301872 0.022161 -0.134924 0.000000 0.000000 0.000000 0.000000 0.000000 0.000000 0.000000 
-1.353054 17.555390 0.246542 21.206023 83.795762 39.755596 0.288422 -1.204463 1.982624 -0.740723 -1.220202 -2.537422 -6.266350 -1.295103 0.663524 8.647256 -2.795152 -3.752121 -3.751462 -0.313608 0.909315 0.000000 0.000000 0.000000 -2.370313 3.329895 2.598041 -55.499428 6.379919 19.027035 -3.596060 -38.150763 -0.012773 -7.418924 4.048410 -0.261448 -0.105977 -0.048005 -0.000000 0.000000 0.000000 0.000000 0.000000 0.000000 0.000000 15.503672 -0.709364 1.089379 58.816203 17.497433 20.904046 2.439515 45.913123 0.016361 5.320654 6.382887 0.303077 0.018610 -0.142718 0.000000 0.000000 0.000000 0.000000 0.000000 0.000000 0.000000 
-1.145942 17.553092 0.277966 21.961524 83.719082 40.495811 -0.145303 -1.142813 1.866321 -0.813366 -1.135340 -2.563192 -6.201731 -1.210674 0.653475 8.472657 -2.907334 -3.805361 -3.698350 -0.310176 0.898072 0.000000 0.000000 0.000000 -2.583862 3.493597 2.587307 -55.668832 7.261324 19.505725 -3.607539 -37.914119 -0.013916 -7.623076 4.167051 -0.277196 -0.103887 -0.054145 -0.000000 0.000000 0.000000 0.000000 0.000000 0.000000 0.000000 15.125618 -0.673284 1.083055 58.411873 18.209162 21.770791 2.332862 47.686940 0.016767 5.320391 6.386333 0.303784 0.015372 -0.150889 0.000000 0.000000 0.000000 0.000000 0.000000 0.000000 0.000000 
-0.940088 17.544270 0.305590 21.916411 83.634919 40.426533 -0.497122 -1.068018 1.774364 -0.869840 -1.040965 -2.585703 -6.133209 -1.116655 0.638396 8.281122 -3.000386 -3.856623 -3.640951 -0.306380 0.887250 0.000000 0.000000 0.000000 -2.812739 3.663713 2.574348 -55.841176 8.156129 19.933688 -3.610226 -37.748643 -0.014878 -7.775798 4.247537 -0.288741 -0.101557 -0.059750 -0.000000 0.000000 0.000000 0.000000 0.000000 0.000000 0.000000 14.705681 -0.613977 1.084810 57.944039 18.951754 22.551326 2.229382 49.410792 0.017173 5.295366 6.407947 0.303988 0.012477 -0.159391 0.000000 0.000000 0.000000 0.000000 0.000000 0.000000 0.000000 
-0.735797 17.528965 0.329643 21.212126 83.540424 39.673411 -0.779027 -0.982205 1.722023 -0.912703 -0.938340 -2.602574 -6.062161 -1.014207 0.615583 8.079422 -3.078798 -3.902525 -3.580504 -0.302339 0.877579 0.000000 0.000000 0.000000 -3.060928 3.815978 2.558894 -56.009906 9.093417 20.302735 -3.602664 -37.677925 -0.015669 -7.873280 4.297595 -0.296287 -0.098878 -0.064993 -0.000000 0.000000 0.000000 0.000000 0.000000 0.000000 0.000000 14.258424 -0.538809 1.098223 57.403520 19.732066 23.251804 2.129888 51.088390 0.017586 5.268270 6.432934 0.304092 0.009711 -0.168018 0.000000 0.000000 0.000000 0.000000 0.000000 0.000000 0.000000 
-0.532576 17.507169 0.349984 19.879485 83.440122 38.283974 -0.988265 -0.886882 1.689046 -0.940846 -0.829732 -2.616410 -5.986743 -0.905622 0.589826 7.869119 -3.133047 -3.942866 -3.516072 -0.298004 0.869333 0.000000 0.000000 0.000000 -3.315316 3.973338 2.540428 -56.199761 10.037769 20.610672 -3.588604 -37.656024 -0.016280 -7.926347 4.317155 -0.300128 -0.095973 -0.069743 -0.000000 0.000000 0.000000 0.000000 0.000000 0.000000 0.000000 13.780406 -0.440162 1.118690 56.792557 20.537799 23.872690 2.033293 52.704325 0.017976 5.230928 6.468374 0.304093 0.007098 -0.176692 0.000000 0.000000 0.000000 0.000000 0.000000 0.000000 0.000000 
-0.330263 17.479106 0.366977 18.047011 83.332814 36.383253 -1.134718 -0.785227 1.677257 -0.956327 -0.717795 -2.625823 -5.907533 -0.793436 0.564676 7.655870 -3.161865 -3.978631 -3.448336 -0.293400 0.862104 0.000000 0.000000 0.000000 -3.569210 4.149777 2.519282 -56.412049 10.964454 20.875315 -3.569736 -37.665419 -0.016719 -7.940468 4.310320 -0.300668 -0.092912 -0.073993 -0.000000 0.000000 0.000000 0.000000 0.000000 0.000000 0.000000 13.281672 -0.319405 1.143989 56.111797 21.364136 24.406242 1.939466 54.255965 0.018345 5.203642 6.504489 0.304690 0.004342 -0.185192 0.000000 0.000000 0.000000 0.000000 0.000000 0.000000 0.000000 
-0.128410 17.445075 0.380974 15.814951 83.219235 34.075596 -1.224380 -0.679805 1.679346 -0.960873 -0.605003 -2.632415 -5.827003 -0.680197 0.539196 7.445504 -3.167450 -4.006231 -3.379324 -0.288735 0.856990 0.000000 0.000000 0.000000 -3.824291 4.325971 2.494637 -56.641708 11.900620 21.084065 -3.546294 -37.718092 -0.017044 -7.929893 4.289313 -0.299306 -0.089647 -0.077919 -0.000000 0.000000 0.000000 0.000000 0.000000 0.000000 0.000000 12.778344 -0.182279 1.175379 55.357939 22.206754 24.855047 1.849196 55.736118 0.018703 5.198590 6.533776 0.306284 0.001318 -0.193321 0.000000 0.000000 0.000000 0.000000 0.000000 0.000000 0.000000 
0.073453 17.405533 0.392345 13.272909 83.100134 31.453135 -1.263463 -0.573198 1.690634 -0.956111 -0.493736 -2.636176 -5.746731 -0.568230 0.516790 7.242411 -3.149595 -4.026740 -3.310382 -0.284093 0.853666 0.000000 0.000000 0.000000 -4.076829 4.513813 2.466626 -56.885609 12.825472 21.252631 -3.520228 -37.797393 -0.017287 -7.907298 4.260208 -0.296841 -0.086260 -0.081545 -0.000000 0.000000 0.000000 0.000000 0.000000 0.000000 0.000000 12.281703 -0.030945 1.210531 54.534651 23.057529 25.210518 1.762667 57.137510 0.019070 5.231021 6.549940 0.309473 -0.002226 -0.200876 0.000000 0.000000 0.000000 0.000000 0.000000 0.000000 0.000000 
0.275799 17.361045 0.401461 10.489742 82.976229 28.586260 -1.256097 -0.467140 1.707802 -0.943402 -0.385596 -2.637266 -5.668861 -0.459113 0.499369 7.049777 -3.109851 -4.040503 -3.243224 -0.279594 0.852030 0.000000 0.000000 0.000000 -4.326709 4.717151 2.435263 -57.137255 13.729447 21.392212 -3.492888 -37.893978 -0.017492 -7.885835 4.231134 -0.294378 -0.082802 -0.084942 -0.000000 0.000000 0.000000 0.000000 0.000000 0.000000 0.000000 11.803221 0.131099 1.247994 53.647466 23.907957 25.465273 1.680388 58.451704 0.019460 5.313427 6.548157 0.314857 -0.006495 -0.207683 -0.000000 0.000000 0.000000 0.000000 0.000000 0.000000 0.000000 
0.479096 17.312266 0.408562 7.505099 82.846778 25.514177 -1.204283 -0.362186 1.729536 -0.923835 -0.281058 -2.636041 -5.596318 -0.353323 0.486676 6.870175 -3.054240 -4.046942 -3.180074 -0.275417 0.852262 0.000000 0.000000 0.000000 -4.579351 4.925123 2.399943 -57.386271 14.623225 21.500566 -3.464856 -38.011650 -0.017718 -7.879395 4.212141 -0.293313 -0.079269 -0.088254 -0.000000 0.000000 0.000000 0.000000 0.000000 0.000000 0.000000 11.356565 0.296258 1.288509 52.699059 24.754310 25.619010 1.603287 59.668732 0.019897 5.450352 6.525951 0.322435 -0.011547 -0.213619 -0.000000 0.000000 0.000000 0.000000 0.000000 0.000000 0.000000 
0.683740 17.259882 0.413813 4.335295 82.710300 22.248816 -1.107364 -0.258397 1.760491 -0.897397 -0.180038 -2.630637 -5.529474 -0.250662 0.482650 6.701803 -2.980116 -4.049969 -3.121132 -0.271507 0.853121 0.000000 0.000000 0.000000 -4.829398 5.167719 2.362254 -57.631538 15.454368 21.610755 -3.438471 -38.112587 -0.017969 -7.893726 4.203039 -0.293547 -0.075810 -0.091374 -0.000000 0.000000 0.000000 0.000000 0.000000 0.000000 0.000000 10.939356 0.468117 1.326769 51.708408 25.578671 25.653595 1.531109 60.781295 0.020387 5.651329 6.480931 0.332605 -0.017648 -0.218576 -0.000000 0.000000 0.000000 0.000000 0.000000 0.000000 0.000000 
0.890006 17.204622 0.417328 0.990888 82.564315 18.795196 -0.963741 -0.155194 1.805518 -0.864115 -0.081819 -2.620630 -5.470516 -0.150418 0.485502 6.543858 -2.894612 -4.049129 -3.067923 -0.267987 0.854707 0.000000 0.000000 0.000000 -5.083365 5.431526 2.321924 -57.865205 16.233634 21.716039 -3.413890 -38.198626 -0.018282 -7.936311 4.211211 -0.296080 -0.072410 -0.094416 -0.000000 0.000000 0.000000 0.000000 0.000000 0.000000 0.000000 10.557916 0.639435 1.363184 50.684399 26.375735 25.572292 1.464602 61.779498 0.020931 5.908772 6.415013 0.344871 -0.024685 -0.222540 -0.000000 0.000000 0.000000 0.000000 0.000000 0.000000 0.000000 
1.098149 17.147187 0.419124 -2.511927 82.407443 15.162008 -0.772018 -0.052580 1.873143 -0.823419 0.013932 -2.604272 -5.419448 -0.052228 0.495878 6.392879 -2.799229 -4.046764 -3.020289 -0.264805 0.856238 0.000000 0.000000 0.000000 -5.338493 5.727837 2.280400 -58.087974 16.932095 21.828311 -3.392400 -38.244086 -0.018653 -8.006943 4.235835 -0.300813 -0.069161 -0.097303 -0.000000 0.000000 0.000000 0.000000 0.000000 0.000000 0.000000 10.206567 0.810004 1.394071 49.648101 27.130389 25.369029 1.403699 62.655966 0.021515 6.215617 6.330477 0.358730 -0.032621 -0.225532 -0.000000 0.000000 0.000000 0.000000 0.000000 0.000000 0.000000 
1.308372 17.088347 0.419346 -6.086342 82.241733 11.433590 -0.540174 0.047722 1.965530 -0.776719 0.106203 -2.582023 -5.378363 0.042784 0.510398 6.250241 -2.705485 -4.041888 -2.980122 -0.262122 0.857983 0.000000 0.000000 0.000000 -5.603427 6.029290 2.237030 -58.291483 17.577701 21.924803 -3.373637 -38.262050 -0.019111 -8.106587 4.282765 -0.308246 -0.066033 -0.100182 -0.000000 0.000000 0.000000 0.000000 0.000000 0.000000 0.000000 9.896975 0.967020 1.421825 48.603687 27.844773 25.060977 1.349052 63.403092 0.022108 6.546913 6.232411 0.372687 -0.041010 -0.227661 -0.000000 0.000000 0.000000 0.000000 0.000000 0.000000 0.000000 
1.520781 17.028837 0.418126 -9.617021 82.071499 7.724093 -0.282559 0.143145 2.084768 -0.726014 0.193476 -2.553554 -5.346467 0.133013 0.528893 6.114821 -2.615351 -4.036267 -2.947072 -0.259891 0.859366 0.000000 0.000000 0.000000 -5.873111 6.340468 2.193414 -58.478154 18.149993 22.007193 -3.358733 -38.232244 -0.019634 -8.227358 4.348288 -0.317977 -0.063138 -0.102964 -0.000000 0.000000 0.000000 0.000000 0.000000 0.000000 0.000000 9.625637 1.108977 1.443432 47.572579 28.506091 24.651303 1.300364 64.017613 0.022676 6.883836 6.125275 0.385743 -0.049577 -0.229064 -0.000000 0.000000 0.000000 0.000000 0.000000 0.000000 0.000000 
